<?xml version="1.0" standalone="no"?>
<!DOCTYPE svg PUBLIC "-//W3C//DTD SVG 20010904//EN"
 "http://www.w3.org/TR/2001/REC-SVG-20010904/DTD/svg10.dtd">
<svg version="1.0" xmlns="http://www.w3.org/2000/svg"
 width="310.000000pt" height="310.000000pt" viewBox="0 0 310.000000 310.000000"
 preserveAspectRatio="xMidYMid meet">
<metadata>
Created by potrace 1.14, written by Peter Selinger 2001-2017
</metadata>
<g transform="translate(0.000000,310.000000) scale(0.100000,-0.100000)"
fill="#000000" stroke="none">
<path d="M887 2784 c-1 -2 -58 -6 -126 -9 -68 -4 -131 -9 -140 -10 -9 -2 -19
-4 -23 -4 -4 -1 -15 -12 -23 -25 -21 -31 -10 -55 60 -136 32 -36 69 -79 84
-95 14 -17 53 -61 86 -100 33 -38 69 -79 80 -91 11 -12 40 -45 64 -74 25 -29
50 -58 55 -64 6 -6 52 -58 101 -116 50 -58 99 -114 110 -125 11 -12 36 -40 55
-64 19 -24 41 -50 48 -57 8 -8 49 -55 92 -104 l78 -90 -2 -74 c-1 -49 -6 -78
-16 -88 -8 -8 -37 -41 -65 -74 -27 -32 -57 -65 -65 -74 -8 -9 -53 -60 -100
-115 -47 -55 -90 -104 -96 -110 -6 -5 -53 -59 -104 -120 -52 -60 -101 -117
-109 -126 -9 -8 -34 -37 -56 -64 -22 -26 -44 -53 -50 -59 -5 -6 -39 -45 -75
-86 -35 -41 -71 -82 -80 -91 -8 -9 -28 -31 -44 -50 -16 -19 -35 -41 -43 -50
-39 -46 -12 -99 52 -104 50 -5 177 -13 320 -21 l111 -6 39 44 c22 24 65 73 95
108 30 35 65 74 77 87 12 12 27 31 35 41 11 16 108 128 143 166 6 6 51 58 101
116 92 109 135 157 169 195 22 25 88 102 159 184 25 30 46 65 46 77 0 24 -73
99 -145 150 -15 11 -19 27 -20 71 l-2 58 64 55 c35 30 70 60 78 66 8 6 18 25
21 41 5 27 -2 39 -63 109 -147 168 -329 379 -406 468 -24 28 -112 129 -162
186 -22 25 -65 75 -95 110 -30 36 -73 84 -94 108 l-40 43 -88 -2 c-49 -2 -90
-4 -91 -5z m248 -249 c28 -33 53 -62 56 -65 3 -3 54 -61 113 -130 60 -69 120
-138 134 -155 15 -16 44 -50 66 -75 86 -100 142 -164 151 -174 56 -60 125
-145 125 -153 0 -6 -23 -30 -50 -54 -47 -41 -53 -44 -100 -41 -48 4 -52 6
-116 80 -80 93 -91 105 -179 207 -38 44 -72 82 -75 85 -3 3 -46 52 -95 110
-50 58 -94 110 -100 116 -5 6 -35 39 -65 74 -89 103 -132 152 -190 219 -64 73
-68 80 -43 79 34 -1 228 14 233 19 5 5 66 -58 135 -142z m599 -1169 c25 -21
46 -43 46 -48 0 -8 -126 -160 -185 -224 -5 -6 -32 -37 -60 -69 -27 -32 -55
-63 -61 -69 -5 -6 -39 -45 -74 -86 -35 -41 -68 -80 -74 -85 -10 -9 -56 -63
-137 -159 -13 -16 -31 -36 -40 -45 -8 -9 -43 -49 -78 -88 -35 -40 -67 -71 -70
-68 -6 3 -177 16 -238 18 -19 1 -16 9 14 42 15 16 58 65 96 108 37 44 73 85
80 92 7 6 31 34 54 61 23 27 51 60 63 74 12 14 41 47 64 74 22 27 52 61 66 76
14 14 42 46 62 71 20 24 53 62 73 84 20 22 50 57 67 77 16 20 40 48 51 60 12
13 46 51 76 85 47 55 58 62 95 65 50 4 52 3 110 -46z"/>
<path d="M640 2358 c-92 -97 -210 -342 -246 -513 -23 -111 -26 -132 -28 -270
-4 -219 38 -405 135 -600 52 -105 122 -211 150 -228 13 -8 23 -4 44 19 61 66
241 258 253 270 11 11 7 24 -20 71 -82 140 -121 280 -121 433 0 114 6 181 22
223 6 15 9 27 6 27 -14 0 85 218 117 258 11 12 4 21 -148 182 -34 36 -80 84
-102 108 l-40 44 -22 -24z"/>
<path d="M1900 2010 c-40 -40 -8 -96 54 -98 81 -2 166 -42 231 -109 165 -169
116 -471 -93 -577 -45 -23 -68 -29 -147 -39 -57 -8 -81 -61 -44 -98 18 -18 29
-20 77 -15 111 10 197 50 272 126 88 89 111 127 140 238 l17 63 51 -50 c53
-52 92 -67 150 -58 77 12 137 96 127 177 -10 81 -65 131 -150 136 -46 2 -59
-1 -94 -26 -22 -16 -45 -39 -51 -50 -10 -19 -39 -28 -41 -12 -1 9 -10 53 -13
67 -4 15 -25 65 -42 101 -23 48 -109 139 -163 172 -63 39 -131 62 -202 69 -49
4 -60 2 -79 -17z"/>
<path d="M1716 859 c-9 -48 -9 -49 29 -49 30 0 35 4 43 33 12 41 8 47 -32 47
-29 0 -34 -4 -40 -31z"/>
<path d="M2365 868 c-29 -133 -35 -162 -40 -191 -3 -17 -10 -48 -15 -67 -5
-19 -11 -51 -14 -71 -3 -20 -8 -42 -10 -50 -5 -14 -15 -56 -21 -94 -2 -11 -5
-27 -6 -35 -3 -11 6 -16 33 -18 l36 -3 17 78 c10 43 21 82 25 86 4 5 8 -27 9
-70 1 -42 5 -81 10 -86 5 -5 21 -7 37 -5 32 3 30 -17 23 201 -2 73 0 81 29
122 16 23 33 52 37 64 5 18 2 21 -24 21 -27 0 -35 -7 -59 -50 -31 -57 -45 -65
-31 -17 5 17 12 46 15 62 2 17 11 56 18 88 l13 57 -38 0 c-32 0 -39 -4 -44
-22z"/>
<path d="M2636 833 c-2 -10 -7 -33 -11 -50 -5 -23 -12 -33 -25 -33 -26 0 -39
-59 -16 -72 12 -7 16 -17 11 -36 -3 -15 -7 -36 -9 -47 -3 -11 -12 -53 -20 -93
-21 -99 -20 -127 6 -151 15 -15 30 -19 52 -15 38 6 38 6 39 46 2 23 -2 33 -13
33 -17 0 -19 36 -5 95 4 19 8 42 9 50 1 8 8 38 15 67 11 45 16 52 39 55 22 2
28 9 30 36 3 27 0 32 -17 32 -19 0 -21 4 -15 50 l6 50 -35 0 c-25 0 -37 -5
-41 -17z"/>
<path d="M1962 740 c-27 -17 -32 -17 -32 -4 0 11 -9 14 -37 12 -40 -3 -38 0
-57 -97 -3 -13 -17 -80 -32 -150 -14 -69 -28 -134 -29 -143 -3 -15 3 -18 34
-18 l38 0 21 98 c12 53 24 110 26 125 11 67 27 97 54 103 44 9 52 13 50 21 -1
4 2 19 6 32 12 35 -5 43 -42 21z"/>
<path d="M2135 753 c-23 -6 -62 -40 -77 -68 -16 -28 -60 -234 -60 -275 0 -80
99 -103 158 -36 30 34 57 99 46 110 -3 3 -20 6 -38 6 -28 0 -32 -4 -38 -35 -7
-36 -39 -64 -51 -44 -4 5 -4 27 0 47 12 73 11 72 75 72 32 0 61 3 63 8 3 4 8
23 11 43 3 19 9 46 14 60 10 25 -2 75 -22 95 -14 14 -55 23 -81 17z m28 -120
c-7 -32 -13 -39 -37 -41 -23 -3 -28 0 -22 13 3 9 6 23 6 31 0 8 9 23 21 35 29
29 44 12 32 -38z"/>
<path d="M1690 742 c0 -4 -12 -62 -26 -127 -14 -66 -27 -131 -30 -145 -3 -14
-7 -32 -10 -40 -3 -8 -8 -32 -11 -53 l-5 -38 38 3 c37 3 38 4 50 58 7 30 15
69 18 87 3 18 15 72 25 120 35 155 35 143 -10 143 -21 0 -39 -4 -39 -8z"/>
</g>
</svg>
