<?xml version="1.0" standalone="no"?>
<!DOCTYPE svg PUBLIC "-//W3C//DTD SVG 20010904//EN"
 "http://www.w3.org/TR/2001/REC-SVG-20010904/DTD/svg10.dtd">
<svg version="1.0" xmlns="http://www.w3.org/2000/svg"
 width="512.000000pt" height="512.000000pt" viewBox="0 0 512.000000 512.000000"
 preserveAspectRatio="xMidYMid meet">
<g transform="translate(0.000000,512.000000) scale(0.100000,-0.100000)"
fill="#000000" stroke="none">
<path d="M1465 3590 c-58 -10 -86 -24 -124 -62 -99 -97 -78 -252 43 -323 109
-64 258 -20 312 93 21 44 20 132 -2 174 -28 55 -98 109 -141 110 -4 0 -17 4
-28 7 -11 4 -38 4 -60 1z"/>
<path d="M4085 3589 c-58 -11 -86 -23 -121 -56 -118 -108 -71 -300 84 -346
197 -59 360 148 247 313 -22 32 -73 71 -100 77 -5 1 -23 6 -40 11 -16 4 -48 5
-70 1z"/>
<path d="M2702 3567 c-122 -64 -152 -219 -62 -321 98 -110 294 -86 361 46 54
105 3 234 -111 284 -47 20 -142 16 -188 -9z"/>
<path d="M1517 3044 c-1 -1 -47 -4 -103 -7 -166 -9 -224 -46 -288 -182 -31
-66 -82 -204 -92 -247 -2 -10 -6 -26 -8 -36 -2 -10 -18 -72 -36 -138 -17 -65
-34 -130 -36 -144 -3 -14 -19 -78 -35 -143 -17 -65 -32 -126 -34 -135 -2 -9
-4 -17 -5 -17 -1 0 -3 -7 -5 -16 -9 -50 -40 -139 -58 -174 -53 -97 -110 -142
-220 -174 l-57 -16 35 -17 c119 -58 167 -70 284 -70 87 0 139 4 211 17 14 3
40 7 58 10 119 20 211 89 261 197 26 57 69 167 75 193 2 6 9 30 16 55 7 25 15
50 16 55 15 57 67 233 71 245 3 8 7 21 9 28 6 29 13 22 24 -19 6 -24 24 -82
40 -129 62 -184 131 -386 137 -400 3 -8 7 -17 8 -20 1 -3 5 -14 10 -25 4 -11
16 -40 25 -65 13 -33 28 -51 56 -67 86 -50 186 -76 294 -76 47 -1 195 12 212
18 7 2 29 6 48 9 141 20 225 91 290 244 24 56 133 398 145 452 15 71 27 102
36 89 5 -8 9 -21 9 -30 0 -16 34 -129 50 -164 5 -11 32 -90 61 -175 29 -85 69
-198 89 -250 l37 -95 60 -32 c87 -47 162 -64 278 -64 99 0 125 2 239 22 145
25 226 82 283 199 31 65 88 226 116 330 9 30 25 87 36 125 12 39 23 77 25 85
14 52 40 169 57 250 63 310 123 383 319 389 l24 1 -24 17 c-14 9 -27 19 -30
22 -16 18 -115 62 -152 68 -49 7 -183 8 -338 0 -123 -5 -179 -24 -229 -76 -63
-65 -144 -273 -196 -501 -2 -8 -13 -51 -24 -95 -12 -44 -24 -93 -27 -110 -3
-16 -9 -33 -12 -37 -6 -5 -59 131 -86 217 -2 6 -7 19 -11 30 -4 11 -21 56 -37
100 -16 44 -34 89 -39 100 -5 11 -25 62 -44 114 -53 141 -61 153 -116 191 -60
40 -99 58 -149 67 -38 7 -270 11 -283 4 -5 -2 -44 -4 -87 -6 -93 -3 -173 -36
-212 -88 -58 -77 -126 -252 -163 -417 -2 -8 -18 -69 -35 -135 -39 -152 -38
-147 -39 -167 -1 -19 -21 -25 -21 -7 0 13 -138 389 -169 462 -11 26 -20 48
-20 50 1 1 -4 13 -9 27 -5 14 -18 45 -27 70 -37 97 -41 102 -90 137 -58 40
-104 62 -147 69 -37 6 -246 12 -251 8z"/>
</g>
</svg>
