<?xml version="1.0" standalone="no"?>
<!DOCTYPE svg PUBLIC "-//W3C//DTD SVG 20010904//EN"
 "http://www.w3.org/TR/2001/REC-SVG-20010904/DTD/svg10.dtd">
<svg version="1.0" xmlns="http://www.w3.org/2000/svg"
 width="1080.000000pt" height="1080.000000pt" viewBox="0 0 1080.000000 1080.000000"
 preserveAspectRatio="xMidYMid meet">
<metadata>
Created by potrace 1.14, written by Peter Selinger 2001-2017
</metadata>
<g transform="translate(0.000000,1080.000000) scale(0.100000,-0.100000)"
fill="#000000" stroke="none">
<path d="M3080 10490 c-25 -3 -71 -5 -102 -5 -32 0 -58 -2 -58 -5 0 -3 -30 -6
-67 -7 -120 -3 -221 -11 -232 -18 -6 -3 -11 -1 -11 5 0 7 -5 8 -12 3 -7 -4
-38 -9 -68 -10 -123 -6 -156 -9 -167 -16 -8 -5 -13 -3 -13 3 0 6 -5 8 -11 5
-10 -7 -149 -17 -261 -19 -32 0 -58 -3 -58 -6 0 -4 -90 -10 -237 -14 -29 0
-53 -3 -53 -6 0 -3 -30 -6 -68 -7 -81 -2 -130 -7 -139 -16 -3 -4 -15 -7 -25
-7 -10 0 -18 -5 -18 -11 0 -5 -4 -7 -10 -4 -5 3 -10 2 -10 -3 0 -5 -10 -14
-23 -21 -12 -7 -35 -32 -51 -57 -34 -53 -46 -150 -25 -199 7 -16 13 -33 13
-37 1 -4 22 -31 47 -60 25 -29 54 -64 65 -76 10 -13 35 -41 54 -62 19 -21 44
-49 54 -62 46 -55 252 -292 279 -320 9 -10 15 -18 13 -18 -2 0 15 -20 38 -44
22 -24 61 -67 86 -97 58 -68 117 -137 191 -220 33 -37 69 -79 81 -95 12 -16
25 -31 29 -34 5 -5 60 -68 213 -244 28 -33 62 -71 75 -85 12 -14 39 -46 60
-70 20 -24 50 -59 66 -77 17 -18 48 -54 70 -79 69 -81 107 -126 189 -219 78
-90 88 -102 123 -141 40 -46 205 -237 294 -340 51 -60 103 -120 114 -131 11
-12 34 -39 52 -60 17 -22 44 -53 60 -70 15 -16 82 -93 147 -170 65 -76 131
-151 145 -166 14 -15 31 -33 36 -40 6 -7 39 -47 75 -88 71 -81 86 -98 156
-180 26 -30 71 -82 99 -115 87 -99 217 -249 231 -265 7 -8 28 -32 46 -52 18
-20 42 -47 52 -60 36 -42 121 -143 126 -148 3 -3 36 -41 74 -85 39 -44 75 -84
80 -90 6 -5 27 -30 47 -55 20 -25 49 -59 65 -77 27 -30 91 -103 146 -167 l25
-29 -19 -49 c-26 -69 -32 -111 -31 -213 0 -67 7 -108 25 -162 l24 -72 -20 -24
c-12 -13 -43 -50 -71 -82 -27 -33 -58 -67 -67 -77 -10 -10 -18 -20 -18 -22 0
-2 -17 -22 -37 -44 -21 -22 -47 -51 -58 -64 -25 -30 -120 -139 -160 -184 -16
-18 -37 -42 -45 -52 -18 -23 -115 -135 -150 -173 -14 -15 -40 -46 -58 -68 -18
-22 -45 -53 -60 -69 -15 -16 -43 -49 -63 -73 -20 -24 -47 -56 -60 -70 -13 -14
-49 -54 -79 -89 -82 -95 -198 -229 -260 -300 -30 -35 -63 -73 -73 -84 -10 -12
-32 -37 -50 -57 -18 -20 -39 -45 -48 -55 -8 -10 -48 -57 -89 -104 -41 -47 -81
-93 -89 -103 -9 -10 -25 -29 -36 -41 -11 -12 -38 -44 -60 -71 -22 -26 -47 -55
-56 -64 -15 -15 -74 -82 -124 -142 -26 -30 -229 -263 -298 -342 -54 -62 -65
-75 -130 -151 -23 -26 -61 -70 -85 -96 -23 -26 -52 -60 -64 -75 -12 -15 -31
-37 -42 -49 -12 -12 -43 -48 -71 -80 -27 -32 -58 -68 -69 -80 -10 -11 -37 -43
-60 -70 -22 -26 -54 -63 -71 -82 -16 -18 -35 -39 -41 -47 -22 -26 -149 -172
-154 -177 -3 -3 -48 -54 -100 -115 -52 -60 -97 -112 -100 -115 -3 -3 -32 -36
-65 -75 -33 -38 -68 -77 -77 -86 -10 -9 -18 -21 -18 -28 0 -6 -3 -11 -8 -11
-4 0 -37 -35 -74 -77 -36 -43 -74 -87 -85 -99 -10 -12 -36 -42 -58 -68 -22
-25 -55 -63 -74 -84 -18 -20 -52 -59 -75 -86 -22 -27 -48 -57 -57 -67 -137
-143 -157 -270 -59 -381 61 -70 109 -87 255 -93 39 -2 70 -4 70 -5 0 -1 32 -3
70 -5 146 -7 260 -14 260 -16 0 -1 25 -3 55 -5 30 -1 96 -5 145 -8 50 -3 90
-6 90 -7 0 0 27 -3 60 -4 33 -2 101 -6 150 -10 115 -8 191 -13 287 -19 43 -2
83 -8 89 -12 8 -5 9 -3 4 6 -6 9 -4 11 5 5 14 -9 57 -12 207 -17 51 -2 93 -5
93 -8 0 -3 25 -4 55 -3 101 5 151 41 295 214 25 29 52 61 60 69 8 9 42 47 75
85 33 39 62 72 65 75 3 3 32 37 65 75 33 39 62 72 65 75 4 4 73 84 135 157 11
13 37 42 58 63 20 22 37 44 37 49 0 5 4 11 8 13 9 3 46 44 147 162 28 33 64
74 80 93 17 18 44 49 60 69 17 20 44 51 60 69 17 17 51 56 77 86 25 30 54 64
65 75 10 12 38 45 63 74 25 30 54 63 65 75 11 13 43 49 70 81 112 130 127 147
138 159 11 11 77 87 137 158 14 16 34 40 45 52 11 13 43 49 70 81 28 32 61 70
75 85 14 15 43 48 65 75 63 75 88 105 110 128 11 12 47 53 79 91 33 39 66 77
75 85 9 8 25 27 36 41 22 28 115 135 156 179 14 16 39 45 55 65 16 21 40 50
54 64 14 14 52 58 85 96 32 39 71 84 86 100 15 17 58 66 95 110 38 44 81 92
96 108 15 15 28 31 28 35 0 5 10 17 22 29 13 11 43 44 68 74 25 29 56 66 70
80 14 15 43 48 65 75 22 26 49 58 60 70 11 12 39 44 61 71 23 26 50 57 60 69
19 21 95 108 152 174 17 19 28 38 26 42 -3 4 -2 8 3 8 11 0 33 73 33 110 0 17
-5 52 -12 78 -12 49 -64 108 -188 212 -30 25 -66 56 -81 70 -15 14 -49 43 -76
65 -26 22 -54 48 -62 57 -9 10 -19 18 -23 18 -4 0 -18 10 -30 23 -13 12 -55
49 -93 82 -38 33 -84 74 -103 90 l-33 30 15 65 c20 83 20 197 0 280 l-15 64
57 53 c31 29 59 53 61 53 2 0 43 35 91 77 135 119 165 145 222 193 30 25 65
55 78 68 14 12 50 44 80 70 81 70 104 112 108 194 3 63 -14 133 -35 148 -4 3
-14 15 -23 28 -8 12 -30 39 -49 60 -19 20 -61 68 -94 107 -33 38 -67 77 -75
86 -8 9 -35 40 -60 69 -25 29 -54 63 -65 76 -11 12 -31 35 -44 50 -72 85 -210
244 -241 277 -19 21 -42 49 -51 63 -8 13 -19 21 -22 17 -4 -3 -7 -1 -7 5 0 6
-10 22 -22 35 -34 37 -63 71 -171 197 -55 63 -113 131 -131 150 -17 19 -74 85
-126 145 -52 61 -97 112 -100 115 -3 3 -61 70 -129 150 -69 80 -143 165 -165
190 -23 25 -66 74 -96 109 -30 35 -66 76 -80 91 -14 16 -39 45 -56 66 -31 38
-55 66 -113 129 -15 17 -69 80 -121 140 -52 61 -99 115 -105 121 -15 17 -91
105 -115 134 -21 25 -83 96 -170 195 -49 56 -144 165 -173 199 -47 55 -74 86
-122 141 -68 77 -87 99 -138 159 -65 77 -120 138 -149 168 -14 16 -24 28 -22
28 3 0 -5 11 -18 23 -13 13 -34 37 -48 53 -39 45 -154 178 -165 190 -5 6 -28
32 -50 59 -22 26 -45 53 -51 59 -5 6 -33 37 -62 69 -29 31 -52 55 -52 52 0 -3
-16 4 -36 14 -31 17 -55 19 -158 18 -66 -1 -141 -4 -166 -7z m156 -512 c19
-20 34 -39 34 -42 0 -2 22 -29 49 -58 27 -29 69 -76 93 -104 24 -28 66 -77 93
-109 28 -32 70 -81 95 -108 25 -27 51 -59 59 -69 7 -11 25 -32 40 -48 34 -35
117 -131 204 -234 23 -27 47 -54 52 -60 88 -98 155 -175 155 -179 0 -3 15 -20
33 -38 17 -19 55 -61 83 -94 121 -141 208 -241 228 -262 11 -12 26 -28 31 -35
10 -13 121 -144 140 -164 5 -6 35 -39 65 -74 30 -35 60 -68 65 -74 11 -12 115
-133 155 -180 22 -26 107 -123 134 -153 6 -6 29 -33 51 -59 22 -27 60 -71 85
-99 25 -28 63 -72 85 -99 22 -26 49 -58 61 -70 11 -11 49 -55 85 -96 35 -41
66 -77 69 -80 3 -3 30 -34 60 -70 30 -36 69 -81 87 -100 37 -41 60 -67 116
-134 23 -27 58 -68 78 -90 152 -173 209 -241 209 -248 0 -5 5 -6 10 -3 6 3 10
2 10 -4 0 -6 35 -50 78 -98 42 -49 97 -113 122 -142 25 -30 52 -61 60 -70 8
-9 28 -31 44 -48 l29 -33 -36 -34 c-21 -19 -37 -32 -37 -30 0 3 -19 -13 -42
-35 -24 -22 -54 -49 -68 -61 -14 -12 -37 -32 -52 -46 -15 -13 -33 -24 -40 -24
-6 0 -8 -3 -5 -6 3 -4 -6 -16 -21 -28 -33 -25 -73 -60 -121 -104 -24 -21 -43
-31 -56 -28 -155 36 -267 40 -352 11 -7 -2 -29 16 -50 41 -21 25 -49 58 -63
73 -14 16 -50 57 -80 92 -30 34 -73 83 -95 108 -40 45 -205 236 -255 295 -21
25 -61 71 -115 132 -5 6 -21 24 -35 40 -14 16 -52 61 -86 99 -33 39 -69 80
-80 93 -10 13 -32 38 -49 57 -16 18 -52 59 -80 91 -27 32 -97 113 -155 179
-58 66 -125 144 -150 174 -25 29 -54 63 -65 74 -11 12 -76 87 -145 167 -69 80
-127 147 -130 150 -3 3 -30 34 -60 70 -30 36 -60 69 -66 75 -6 5 -55 62 -110
125 -54 63 -103 120 -109 126 -12 13 -26 30 -155 179 -52 61 -99 115 -105 121
-12 13 -29 33 -155 179 -52 61 -97 112 -100 115 -3 3 -34 39 -70 80 -35 41
-71 82 -80 91 -8 8 -28 32 -45 53 -16 21 -41 50 -55 65 -45 49 -94 105 -124
141 -16 19 -54 64 -86 100 -31 36 -77 88 -101 116 -75 87 -152 176 -194 224
-116 133 -163 187 -192 217 -29 31 -30 33 -10 34 12 0 38 2 57 5 19 2 65 5
101 7 37 3 72 8 78 11 6 4 11 2 11 -4 0 -6 4 -9 9 -5 10 5 86 12 226 21 39 2
115 7 170 10 55 4 115 7 133 8 17 0 32 4 32 9 0 5 6 4 13 -2 8 -6 17 -8 20 -5
3 4 48 8 99 11 51 2 94 5 95 7 14 13 60 -6 89 -36z m2734 -5168 c53 -47 52
-45 155 -134 44 -38 82 -72 85 -75 3 -3 34 -30 70 -60 108 -91 106 -88 79
-118 -41 -45 -53 -58 -99 -113 -25 -29 -54 -63 -65 -75 -23 -26 -111 -127
-138 -159 -83 -96 -115 -133 -134 -152 -13 -13 -23 -25 -23 -28 0 -3 -10 -16
-22 -28 -13 -13 -44 -48 -70 -78 -26 -30 -59 -68 -73 -85 -15 -16 -43 -50 -63
-74 -20 -25 -46 -54 -57 -66 -11 -11 -40 -45 -65 -74 -25 -29 -52 -61 -60 -70
-9 -9 -61 -68 -115 -131 -55 -63 -104 -120 -110 -126 -5 -6 -30 -35 -55 -64
-43 -51 -79 -92 -118 -135 -10 -11 -47 -54 -83 -95 -35 -41 -68 -80 -74 -86
-5 -6 -28 -32 -50 -59 -22 -26 -45 -54 -52 -60 -7 -7 -44 -50 -84 -96 -39 -46
-76 -85 -80 -87 -5 -2 -9 -8 -9 -12 0 -5 -12 -22 -27 -38 -16 -15 -50 -54 -78
-87 -27 -32 -54 -63 -60 -69 -5 -6 -39 -45 -75 -86 -36 -41 -69 -80 -75 -86
-5 -6 -32 -37 -60 -69 -27 -33 -59 -69 -70 -81 -11 -12 -31 -35 -44 -50 -24
-29 -137 -158 -156 -180 -11 -13 -35 -41 -119 -139 -33 -38 -63 -72 -66 -75
-3 -3 -30 -34 -60 -70 -30 -35 -62 -72 -70 -81 -29 -31 -85 -96 -135 -154 -27
-33 -58 -67 -67 -77 -10 -10 -18 -20 -18 -22 0 -2 -17 -22 -37 -44 -80 -86
-103 -113 -103 -118 0 -3 -10 -15 -23 -27 -12 -12 -44 -47 -70 -78 -43 -52
-49 -55 -84 -52 -21 2 -72 5 -113 7 -41 2 -75 5 -75 6 0 1 -40 4 -90 6 -133 6
-230 12 -230 14 0 1 -36 3 -80 6 -117 6 -162 11 -173 18 -6 3 -13 2 -17 -4 -4
-6 -11 -8 -16 -4 -9 5 -152 16 -226 18 -18 0 -33 5 -33 11 0 5 -5 3 -10 -5 -5
-8 -10 -10 -10 -4 0 5 15 26 33 46 19 21 51 58 72 84 21 25 48 56 59 68 12 12
75 84 141 161 65 77 126 147 135 156 8 9 35 40 60 69 25 29 50 58 55 64 6 6
39 45 75 86 36 41 70 80 75 86 6 6 33 37 60 69 28 32 55 63 60 69 6 6 50 58
100 116 49 58 100 116 113 130 14 14 38 42 56 63 17 22 47 56 66 77 19 21 51
57 70 80 19 23 44 52 55 64 17 19 42 48 138 160 10 11 30 35 45 51 15 17 60
68 100 115 41 47 93 108 117 135 24 28 53 61 65 75 12 14 41 48 65 75 24 28
52 59 62 71 42 49 130 149 148 169 11 13 40 47 65 76 25 29 54 62 65 73 11 12
19 24 17 29 -1 4 2 7 6 7 5 0 39 36 76 80 37 43 81 94 97 111 17 18 39 44 50
57 10 13 38 46 61 72 24 26 66 73 93 106 28 32 68 79 90 104 22 25 63 72 90
105 28 32 57 65 65 74 9 9 43 47 75 86 33 38 65 75 70 81 12 13 112 127 138
158 33 39 104 120 183 212 44 49 103 117 132 151 51 59 53 61 88 53 20 -5 45
-7 55 -5 11 2 19 0 19 -4 0 -9 102 -7 153 3 72 14 80 16 85 21 13 13 41 2 82
-35z"/>
<path d="M1693 8766 c-54 -63 -68 -82 -159 -206 -130 -179 -304 -453 -304
-479 0 -6 -3 -11 -8 -11 -4 0 -25 -35 -47 -77 -22 -43 -42 -80 -45 -83 -10
-10 -139 -280 -190 -400 -65 -154 -183 -480 -206 -570 -2 -8 -20 -76 -39 -150
-19 -74 -37 -144 -39 -155 -2 -11 -13 -65 -25 -120 -11 -55 -22 -113 -25 -130
-18 -99 -26 -146 -31 -194 -4 -30 -9 -63 -11 -75 -2 -12 -6 -50 -10 -86 -3
-36 -7 -76 -9 -90 -26 -148 -27 -821 -1 -1030 2 -19 7 -64 11 -99 3 -36 8 -67
10 -70 2 -4 6 -33 9 -66 6 -66 8 -73 36 -225 71 -376 169 -714 297 -1020 8
-19 18 -44 23 -55 82 -199 227 -491 304 -613 15 -24 31 -53 37 -65 5 -12 18
-35 29 -52 11 -16 25 -40 31 -52 7 -13 16 -23 21 -23 4 0 8 -5 8 -11 0 -14
126 -203 197 -294 4 -6 21 -28 38 -50 16 -22 35 -46 42 -53 7 -7 13 -16 13
-20 1 -18 68 -77 91 -80 26 -3 45 16 349 341 36 38 90 95 120 127 30 32 102
109 160 170 58 62 134 143 170 181 36 38 106 112 155 165 50 54 108 116 130
140 128 134 142 153 141 180 -1 6 -18 38 -39 72 -21 34 -37 64 -37 68 1 4 -3
10 -8 13 -14 9 -63 91 -55 91 5 0 3 4 -3 8 -52 34 -286 564 -340 771 -2 9 -20
75 -39 146 -19 72 -37 144 -39 161 -3 17 -7 37 -10 45 -3 8 -7 32 -10 54 -3
22 -8 51 -11 65 -3 14 -8 52 -11 85 -4 33 -8 63 -10 66 -8 15 -18 235 -19 419
0 181 4 259 21 429 3 39 27 184 40 251 3 14 7 36 9 50 2 14 20 87 39 162 89
347 229 678 416 988 5 8 30 49 56 90 50 80 56 96 43 121 -8 15 -87 102 -194
214 -27 29 -95 101 -150 160 -55 59 -120 129 -145 155 -25 25 -92 97 -150 159
-58 62 -130 139 -160 171 -30 32 -100 106 -155 165 -207 222 -230 244 -257
249 -22 4 -33 -2 -55 -28z"/>
<path d="M6910 7348 c-52 -22 -106 -76 -128 -128 -23 -55 -19 -138 9 -195 26
-53 88 -108 134 -120 53 -14 59 -15 145 -20 47 -3 99 -7 115 -9 72 -11 92 -15
133 -25 23 -6 61 -16 84 -22 23 -5 47 -14 53 -19 5 -4 12 -8 15 -9 22 0 183
-72 188 -83 2 -5 8 -8 13 -8 6 0 37 -18 70 -40 33 -22 65 -40 70 -40 5 0 9 -4
9 -8 0 -5 20 -23 43 -40 48 -34 187 -170 227 -222 256 -332 368 -714 325
-1120 -4 -41 -9 -84 -10 -95 -5 -52 -55 -236 -76 -280 -6 -12 -12 -27 -14 -35
-8 -36 -18 -60 -24 -60 -4 0 -8 -6 -8 -14 0 -26 -119 -219 -191 -310 -90 -113
-213 -231 -226 -219 -3 4 -6 -1 -6 -10 0 -9 -6 -17 -14 -17 -8 0 -16 -3 -18
-7 -5 -12 -75 -63 -87 -63 -5 0 -23 -12 -40 -26 -17 -14 -31 -22 -31 -18 0 4
-9 -1 -20 -11 -11 -10 -20 -15 -20 -11 0 4 -12 -1 -27 -11 -30 -20 -80 -45
-100 -49 -7 -1 -32 -9 -55 -17 -44 -16 -96 -29 -100 -25 -2 1 -12 -3 -23 -9
-21 -12 -99 -25 -152 -27 -18 -1 -33 -3 -33 -6 0 -3 -32 -5 -71 -5 -39 0 -72
-2 -75 -6 -2 -3 -15 -4 -29 -1 -16 3 -25 0 -25 -9 0 -7 -3 -10 -6 -6 -11 11
-68 -24 -106 -65 -86 -94 -84 -226 5 -320 43 -45 125 -85 152 -74 8 3 15 1 15
-5 0 -6 3 -8 8 -6 4 3 39 6 77 8 39 2 78 7 89 12 14 7 16 6 11 -4 -6 -8 -4
-10 4 -4 7 4 27 9 44 11 18 1 46 5 62 8 17 3 47 8 69 11 58 10 68 12 99 24 15
6 27 8 27 6 0 -3 15 1 34 9 19 8 37 12 40 8 3 -3 6 -1 6 4 0 5 9 10 19 11 43
3 351 147 351 164 0 5 3 8 8 7 9 -3 84 42 94 56 4 6 8 8 8 3 0 -16 179 132
280 233 84 84 131 140 188 220 26 36 50 67 54 68 5 2 8 7 8 12 0 4 25 49 55
99 30 51 55 94 55 96 0 3 15 36 34 75 29 58 82 201 102 270 26 93 63 272 64
312 0 14 9 17 43 15 23 0 47 2 53 5 16 10 28 -3 60 -62 16 -30 32 -56 37 -58
4 -2 7 -9 7 -16 0 -22 134 -147 200 -187 74 -44 129 -65 215 -82 102 -21 252
-10 330 23 28 12 58 23 70 25 40 9 265 195 238 195 -5 0 -3 4 2 8 18 13 63 86
84 137 87 210 53 485 -82 652 -135 167 -297 249 -512 258 -33 1 -68 -2 -77 -7
-13 -6 -18 -5 -18 4 0 8 -3 9 -8 3 -4 -6 -16 -12 -27 -12 -59 -5 -206 -67
-253 -108 -13 -11 -26 -20 -30 -20 -3 0 -28 -22 -55 -49 -51 -50 -114 -141
-137 -195 -7 -19 -19 -31 -29 -30 -9 1 -18 0 -21 -1 -16 -6 -50 -5 -50 1 0 5
-7 6 -15 3 -16 -6 -21 4 -29 51 -62 419 -264 823 -555 1112 -55 54 -114 110
-133 125 -41 34 -70 58 -97 80 -12 10 -21 14 -21 10 0 -4 -4 -2 -8 5 -8 13
-119 83 -172 110 -19 9 -38 21 -41 26 -3 5 -10 9 -15 9 -5 0 -31 11 -59 23
-64 30 -205 86 -225 90 -8 2 -28 8 -45 15 -16 6 -32 11 -35 10 -3 0 -25 4 -50
9 -52 12 -91 20 -140 27 -19 2 -46 7 -60 10 -14 3 -81 7 -150 8 -105 3 -132 0
-170 -16z"/>
<path d="M6131 2672 c-12 -9 -23 -28 -25 -42 -3 -27 -12 -65 -26 -120 -5 -19
-12 -51 -15 -70 -3 -19 -8 -43 -11 -52 -6 -19 -3 -20 45 -22 16 0 33 -4 36 -8
4 -4 15 -4 24 1 9 4 55 7 104 6 52 -1 91 3 96 9 8 10 12 25 26 96 3 14 13 59
22 100 26 115 36 105 -108 106 -69 1 -131 4 -137 7 -5 4 -20 -1 -31 -11z"/>
<path d="M8770 2671 c-8 -3 -17 -17 -19 -31 -2 -14 -4 -29 -5 -35 -1 -5 -5
-16 -9 -22 -5 -7 -6 -13 -4 -13 3 0 1 -17 -4 -37 -5 -21 -12 -54 -15 -73 -8
-48 -12 -65 -14 -65 -1 0 -3 -9 -5 -20 -5 -25 -17 -87 -21 -100 -1 -5 -5 -26
-9 -45 -10 -49 -13 -65 -15 -67 -2 -2 -3 -11 -4 -20 -1 -10 -8 -45 -16 -78 -7
-33 -13 -68 -12 -77 0 -10 -3 -18 -7 -18 -4 0 -8 -10 -8 -22 -1 -13 -3 -30 -6
-38 -2 -8 -7 -33 -12 -55 -4 -22 -10 -49 -12 -60 -3 -11 -6 -29 -8 -40 -2 -11
-4 -20 -5 -20 -2 0 -5 -14 -13 -55 -10 -50 -21 -105 -22 -110 -1 -3 -5 -29
-10 -57 -4 -29 -10 -53 -14 -53 -3 0 -7 -15 -8 -33 -3 -31 -10 -72 -13 -72 -2
0 -5 -14 -14 -65 -8 -39 -14 -65 -16 -65 -1 0 -9 -52 -12 -82 -1 -7 -4 -13 -7
-13 -3 0 -7 -10 -8 -22 -2 -27 -11 -73 -13 -73 -1 0 -3 -9 -5 -20 -10 -69 -17
-102 -22 -115 -4 -8 -7 -22 -9 -30 -1 -8 -5 -33 -9 -55 -4 -22 -7 -46 -8 -52
0 -7 -3 -13 -7 -13 -3 0 -6 -8 -6 -17 -1 -30 -15 -107 -21 -116 -3 -5 -7 -21
-9 -36 -2 -14 -8 -44 -13 -66 -21 -80 -29 -75 144 -75 117 0 155 3 156 13 0 6
2 19 4 27 12 43 35 152 34 158 -1 4 0 10 1 15 1 4 4 12 5 17 1 6 4 12 5 15 5
9 23 98 26 128 1 9 3 19 4 22 1 3 4 10 5 15 1 6 4 11 5 13 2 2 4 12 15 92 3
22 10 44 16 49 5 6 9 16 9 23 0 8 5 19 11 26 5 7 19 27 30 46 11 18 23 30 27
26 4 -4 8 -113 9 -243 2 -130 4 -282 6 -337 l2 -100 145 -2 c102 -1 147 2 152
10 4 6 5 28 1 47 -3 19 -6 91 -6 160 -1 72 -6 128 -12 133 -6 4 -5 10 4 16 7
5 11 13 8 18 -6 10 -19 250 -21 403 -1 47 -5 91 -9 98 -5 6 -4 12 1 12 9 0 6
69 -3 78 -2 3 0 13 6 23 5 11 6 19 2 19 -4 0 -9 21 -11 46 -3 39 3 57 40 118
23 39 48 77 55 84 7 8 11 17 8 22 -3 4 2 10 10 14 8 3 15 12 15 21 0 8 5 15
10 15 6 0 10 5 10 10 0 6 24 48 54 94 30 46 52 87 49 90 -4 3 -1 6 5 6 6 0 21
19 33 43 12 23 24 44 28 47 3 3 7 13 9 23 3 16 -8 17 -130 16 -137 -2 -157 -8
-166 -49 -2 -8 -9 -18 -15 -22 -7 -4 -9 -8 -4 -8 4 0 0 -12 -10 -26 -23 -36
-50 -83 -71 -124 -9 -19 -19 -37 -22 -40 -3 -3 -18 -30 -34 -60 -16 -30 -37
-67 -47 -81 -10 -14 -16 -29 -12 -33 3 -3 1 -6 -6 -6 -7 0 -9 -5 -5 -12 4 -6
3 -8 -4 -4 -5 3 -13 0 -16 -6 -3 -7 -3 -2 1 12 3 14 7 35 7 48 0 12 3 22 8 22
4 0 5 7 2 15 -4 8 -2 15 2 15 5 0 10 12 10 28 1 15 4 41 8 57 4 17 10 41 13
55 3 14 6 39 7 55 0 17 5 33 9 36 5 3 10 17 11 30 2 13 6 38 10 54 3 17 8 39
10 50 3 11 12 56 21 100 9 44 18 87 20 95 2 8 6 26 9 40 3 14 8 36 11 50 3 14
9 45 15 70 6 25 12 56 14 70 2 14 7 36 11 50 5 14 9 39 10 56 l3 31 -142 0
c-77 0 -148 -3 -156 -6z"/>
<path d="M9961 2520 c-8 -4 -34 -6 -58 -4 -24 2 -41 -1 -38 -6 3 -5 1 -11 -5
-15 -6 -4 -8 -11 -5 -16 4 -5 2 -9 -2 -9 -5 0 -9 -10 -10 -22 0 -13 -3 -36 -7
-53 -10 -46 -19 -99 -19 -112 0 -7 -3 -13 -7 -13 -3 0 -7 -10 -8 -22 -3 -37
-8 -63 -14 -73 -3 -6 -4 -18 -3 -27 5 -27 -16 -36 -90 -40 -68 -3 -70 -4 -79
-33 -5 -16 -11 -37 -14 -45 -3 -8 -4 -19 -3 -24 1 -4 -3 -23 -9 -42 -6 -18
-13 -46 -15 -61 -3 -16 -6 -38 -9 -50 -3 -13 -2 -23 2 -24 4 0 36 -2 72 -2
l65 -2 -2 -30 c-2 -33 -19 -130 -23 -130 -2 0 -8 -30 -15 -70 -2 -16 -9 -48
-14 -70 -6 -22 -10 -41 -11 -42 0 -2 -1 -4 -1 -5 -1 -2 -3 -16 -4 -33 -2 -16
-4 -31 -5 -32 -1 -2 -4 -7 -5 -13 -1 -5 -3 -11 -4 -12 -2 -2 -4 -15 -7 -30 -2
-16 -6 -40 -8 -55 -3 -16 -5 -28 -6 -28 -1 0 -4 -11 -7 -25 -2 -14 -6 -29 -7
-35 -2 -5 -6 -28 -11 -50 -4 -22 -12 -48 -17 -57 -6 -12 -5 -18 3 -18 8 0 8
-4 -1 -15 -7 -8 -9 -15 -5 -15 4 0 2 -7 -5 -15 -7 -8 -10 -15 -7 -15 3 0 1
-15 -4 -32 -5 -18 -12 -53 -15 -78 -3 -25 -8 -49 -11 -53 -3 -5 -7 -35 -9 -68
-2 -33 -6 -64 -9 -70 -4 -5 -1 -9 5 -9 7 0 8 -6 2 -17 -7 -16 -9 -38 -2 -45 1
-2 3 -17 5 -35 5 -44 41 -122 68 -146 12 -11 42 -29 67 -40 81 -37 322 -22
306 19 -3 7 -1 16 4 19 5 3 8 13 8 23 -1 20 8 63 21 109 5 17 7 34 3 37 -3 3
-1 6 4 6 5 0 9 12 10 28 1 15 3 34 5 42 3 12 -7 15 -59 12 -34 -1 -71 2 -82 8
-18 10 -36 69 -33 110 2 28 12 70 19 81 5 8 3 9 -5 4 -10 -6 -11 -3 -2 12 6
11 7 23 4 27 -3 3 -2 6 4 6 6 0 9 10 9 23 -1 12 2 33 7 47 8 23 14 48 22 95 2
11 7 36 11 55 3 19 7 40 8 45 1 6 5 16 9 23 5 6 6 12 2 12 -3 0 -1 9 5 19 7
14 7 22 -1 27 -7 4 -8 9 -1 13 5 3 12 20 15 36 3 17 8 41 12 55 3 14 8 39 10
56 3 17 9 42 13 55 5 13 8 32 7 42 -2 9 0 17 4 17 4 0 7 10 8 23 1 12 4 33 8
47 4 14 8 40 9 57 0 18 3 33 6 33 3 0 6 9 7 21 3 41 19 47 115 45 94 -2 126
10 114 40 -3 8 -2 14 2 14 4 0 8 17 10 37 1 20 6 39 10 43 4 3 7 16 6 30 0 14
2 30 5 35 3 6 7 18 8 27 2 10 3 21 4 25 5 28 -4 32 -73 32 -130 -1 -130 -1
-124 19 3 9 8 31 11 47 10 58 14 75 21 87 5 7 3 8 -6 3 -10 -6 -11 -4 -4 6 8
14 12 27 19 64 2 11 4 20 5 20 3 0 10 41 13 72 1 18 4 33 7 33 12 0 9 48 -3
52 -6 3 -46 4 -87 3 -41 -1 -80 2 -85 6 -6 4 -17 4 -24 -1z"/>
<path d="M7165 2113 c-27 -8 -52 -18 -55 -23 -3 -4 -15 -10 -27 -14 -13 -4
-46 -30 -74 -58 -28 -27 -53 -47 -56 -44 -4 3 -2 6 3 6 5 0 9 10 10 23 0 12 2
40 5 62 l4 40 -152 1 c-166 1 -156 5 -168 -57 -35 -179 -72 -345 -78 -347 -4
-2 -5 -7 -3 -11 3 -4 0 -27 -5 -52 -6 -24 -13 -55 -15 -69 -3 -14 -20 -99 -40
-190 -19 -91 -44 -208 -55 -260 -11 -52 -24 -113 -29 -135 -5 -22 -14 -65 -20
-95 -6 -30 -22 -107 -36 -170 -13 -63 -27 -126 -29 -140 -3 -14 -8 -38 -13
-55 -5 -16 -8 -41 -8 -55 l1 -25 144 -3 c80 -1 148 1 153 6 5 5 11 18 13 30 5
23 11 49 20 92 3 14 7 36 10 50 5 25 12 59 20 95 21 94 36 164 40 185 4 22 10
49 30 150 3 14 19 88 36 165 17 77 32 149 34 160 2 11 6 31 9 45 4 14 9 39 12
55 3 17 7 35 8 40 2 6 6 27 10 47 21 102 53 150 132 198 49 30 63 33 132 34
42 1 82 4 88 8 11 7 16 25 29 103 2 17 7 42 11 57 3 15 6 30 6 33 0 2 6 28 14
57 7 29 14 59 14 66 0 17 -62 14 -125 -5z"/>
<path d="M7767 2109 c-159 -51 -316 -255 -350 -454 -5 -30 -29 -139 -45 -205
-5 -19 -9 -38 -10 -42 -1 -5 -2 -9 -3 -10 0 -2 -2 -12 -4 -23 -5 -34 -15 -87
-30 -151 -8 -34 -16 -73 -19 -85 -2 -13 -9 -44 -15 -69 -5 -25 -12 -56 -15
-70 -3 -14 -8 -36 -11 -50 -4 -14 -8 -34 -9 -45 -1 -11 -6 -40 -11 -65 -27
-146 13 -297 95 -360 59 -46 117 -62 215 -62 97 1 100 1 160 21 77 26 176 108
237 196 33 48 75 142 70 158 -1 4 2 7 6 7 7 0 20 53 38 152 2 15 9 39 14 52 6
17 6 27 -1 32 -17 10 -270 7 -281 -4 -6 -6 -15 -32 -20 -59 -9 -45 -12 -61
-22 -108 -11 -51 -38 -109 -63 -136 -53 -56 -134 -47 -152 17 -9 33 -7 109 4
143 3 10 8 32 10 47 2 16 9 49 16 74 6 25 13 56 15 70 3 14 7 32 9 40 2 8 8
33 14 55 l10 40 252 -1 c167 0 252 3 255 10 2 6 5 22 8 36 2 14 7 36 10 50 3
14 8 36 10 50 3 14 11 57 20 95 8 39 17 83 20 98 2 15 7 35 10 45 3 9 7 34 11
56 3 21 8 42 11 47 6 11 7 156 1 184 -22 94 -45 138 -97 183 -15 13 -77 43
-95 46 -5 1 -14 4 -20 8 -24 14 -191 6 -248 -13z m150 -273 c7 -6 14 -24 15
-39 1 -15 6 -27 11 -27 4 0 5 -5 1 -12 -4 -7 -9 -24 -10 -38 -1 -23 -8 -58
-18 -105 -3 -11 -11 -48 -18 -82 -8 -34 -16 -64 -19 -67 -5 -6 -111 -10 -176
-7 -29 1 -33 4 -31 26 1 14 5 25 8 25 3 0 6 12 6 28 1 27 3 38 25 122 6 25 12
51 12 58 0 6 4 12 9 12 5 0 7 4 3 9 -3 5 2 16 10 24 8 9 15 20 15 26 0 14 40
51 65 61 25 9 76 2 92 -14z"/>
<path d="M6004 2102 c-9 -6 -30 -85 -50 -189 -2 -12 -29 -140 -60 -285 -30
-144 -58 -274 -60 -288 -3 -14 -9 -41 -14 -60 -5 -19 -11 -52 -14 -74 -4 -21
-8 -42 -11 -46 -2 -3 -7 -22 -10 -41 -6 -35 -71 -344 -81 -389 -4 -14 -8 -41
-11 -60 -3 -19 -10 -43 -15 -53 -5 -10 -8 -21 -5 -23 3 -3 -3 -36 -13 -74 -10
-38 -15 -71 -12 -74 3 -4 74 -6 158 -6 l152 0 4 28 c9 50 78 382 83 394 2 7 7
25 10 41 3 15 7 37 10 50 2 12 7 34 10 50 3 15 7 37 10 50 27 124 44 203 49
230 2 15 7 35 10 45 3 9 7 28 10 42 4 24 13 66 56 270 11 52 23 107 25 122 3
16 12 56 20 90 8 35 16 74 19 88 3 14 8 36 11 50 3 14 7 37 10 52 2 15 6 32 9
37 14 22 -26 30 -155 30 -74 0 -139 -3 -145 -7z"/>
</g>
</svg>
